<?xml version="1.0" standalone="no"?><!-- Generator: Gravit.io --><svg xmlns="http://www.w3.org/2000/svg" xmlns:xlink="http://www.w3.org/1999/xlink" style="isolation:isolate" viewBox="0 0 551.362 332.715" width="551.362px" height="332.715px"><clipPath id="_clipPath_E9wH4nI6b5XmMABmDTPBCFULHT0fq268"><path d=" M 0 0 L 0 332.715 L 551.362 332.715 L 551.362 0 L 0 0 Z " fill="rgb(255,255,255)"/></clipPath><g clip-path="url(#_clipPath_E9wH4nI6b5XmMABmDTPBCFULHT0fq268)"><linearGradient id="_lgradient_4" x1="0" y1="0.5" x2="1" y2="0.5" gradientTransform="matrix(551.362,0,0,332.715,0,0)" gradientUnits="userSpaceOnUse"><stop offset="0%" stop-opacity="1" style="stop-color:rgb(0,136,247)"/><stop offset="53.47826086956522%" stop-opacity="1" style="stop-color:rgb(23,175,251)"/><stop offset="67.3913043478261%" stop-opacity="1" style="stop-color:rgb(85,188,240)"/><stop offset="98.69565217391305%" stop-opacity="1" style="stop-color:rgb(0,196,255)"/></linearGradient><path d=" M 551.362 0 L 551.362 332.715 L 0 332.715 L 0 0 L 551.362 0 Z " fill="url(#_lgradient_4)"/><path d=" M 551.362 102.38 L 551.362 332.715 L 217.062 332.715 C 196.771 312.42 175.683 277.906 208.58 238.79 C 261.041 176.426 323.754 225.794 360.017 144.147 C 395.8 63.592 475.256 58.346 551.362 102.38 Z " fill="rgb(255,255,255)"/><path d=" M 429.09 65.183 C 413.904 70.112 400.248 78.265 388.493 89.407 C 376.159 101.096 365.854 116.157 357.853 134.168 C 336.765 181.651 307.113 187.634 275.719 193.973 C 248.926 199.384 221.215 204.98 195.492 235.56 C 179.65 254.391 173.945 274.047 178.53 293.977 C 181.552 307.103 188.929 320.109 200.481 332.715 L 201.957 332.715 C 180.41 309.562 163.716 275.042 196.328 236.259 C 221.805 205.974 249.325 200.417 275.938 195.044 C 307.611 188.651 337.53 182.607 358.848 134.611 C 374.51 99.358 398.253 76.347 429.429 66.221 C 464.528 54.816 507.421 60.991 551.362 83.539 L 551.362 82.309 C 507.333 59.838 464.332 53.728 429.09 65.183 Z " fill="rgb(255,255,255)"/><linearGradient id="_lgradient_5" x1="0" y1="0" x2="1" y2="0" gradientTransform="matrix(54.521,0,0,54.521,474.419,200.224)" gradientUnits="userSpaceOnUse"><stop offset="0%" stop-opacity="1" style="stop-color:rgb(255,159,85)"/><stop offset="100%" stop-opacity="1" style="stop-color:rgb(255,210,85)"/></linearGradient><path d=" M 501.68 217.713 C 492.021 217.713 484.19 209.883 484.19 200.224 C 484.19 190.565 492.021 182.735 501.68 182.735 C 511.338 182.735 519.168 190.565 519.168 200.224 C 519.168 209.883 511.338 217.713 501.68 217.713 Z  M 524.44 194.328 C 523.887 192.185 523.038 190.163 521.941 188.303 L 524.485 184.477 L 520.956 180.948 L 517.427 177.418 L 513.601 179.962 C 511.741 178.867 509.719 178.017 507.576 177.463 L 506.671 172.963 L 501.68 172.963 L 496.688 172.963 L 495.783 177.463 C 493.641 178.017 491.618 178.867 489.758 179.962 L 485.933 177.418 L 482.403 180.948 L 478.874 184.477 L 481.418 188.303 C 480.321 190.163 479.473 192.185 478.919 194.328 L 474.419 195.234 L 474.419 200.224 L 474.419 205.215 L 478.919 206.122 C 479.473 208.263 480.321 210.286 481.418 212.146 L 478.874 215.971 L 482.403 219.5 L 485.933 223.03 L 489.758 220.486 C 491.618 221.583 493.641 222.431 495.783 222.985 L 496.688 227.485 L 501.68 227.485 L 506.671 227.485 L 507.576 222.985 C 509.719 222.431 511.741 221.583 513.601 220.486 L 517.427 223.03 L 520.956 219.5 L 524.485 215.971 L 521.941 212.146 C 523.038 210.286 523.887 208.263 524.44 206.122 L 528.94 205.215 L 528.94 200.224 L 528.94 195.234 L 524.44 194.328 Z " fill-rule="evenodd" fill="url(#_lgradient_5)"/><linearGradient id="_lgradient_6" x1="0" y1="0" x2="1" y2="0" gradientTransform="matrix(25.911,0,0,25.911,508.606,235.45)" gradientUnits="userSpaceOnUse"><stop offset="0%" stop-opacity="1" style="stop-color:rgb(255,159,85)"/><stop offset="100%" stop-opacity="1" style="stop-color:rgb(255,210,85)"/></linearGradient><path d=" M 521.562 243.76 C 516.972 243.76 513.25 240.04 513.25 235.449 C 513.25 230.859 516.972 227.138 521.562 227.138 C 526.152 227.138 529.873 230.859 529.873 235.449 C 529.873 240.04 526.152 243.76 521.562 243.76 Z  M 532.379 232.647 C 532.115 231.628 531.712 230.667 531.191 229.784 L 532.399 227.965 L 530.723 226.289 L 529.046 224.611 L 527.228 225.82 C 526.344 225.299 525.382 224.895 524.364 224.632 L 523.934 222.494 L 521.562 222.494 L 519.189 222.494 L 518.76 224.632 C 517.741 224.895 516.78 225.299 515.896 225.82 L 514.078 224.611 L 512.401 226.289 L 510.724 227.965 L 511.933 229.784 C 511.411 230.667 511.008 231.628 510.745 232.647 L 508.606 233.077 L 508.606 235.449 L 508.606 237.821 L 510.745 238.251 C 511.008 239.27 511.411 240.231 511.933 241.115 L 510.724 242.933 L 512.401 244.61 L 514.078 246.288 L 515.896 245.079 C 516.78 245.599 517.741 246.002 518.76 246.266 L 519.189 248.405 L 521.562 248.405 L 523.934 248.405 L 524.364 246.266 C 525.382 246.002 526.344 245.599 527.228 245.079 L 529.046 246.288 L 530.723 244.61 L 532.399 242.933 L 531.191 241.115 C 531.712 240.231 532.115 239.27 532.379 238.251 L 534.518 237.821 L 534.518 235.449 L 534.518 233.077 L 532.379 232.647 Z " fill-rule="evenodd" fill="url(#_lgradient_6)"/><path d=" M 461.49 107.465 C 461.357 80.464 435.448 58.703 403.621 58.86 C 371.794 59.017 346.102 81.033 346.234 108.034 C 346.271 115.142 348.092 121.887 351.338 127.964 C 351.356 128 369.106 162.279 371.758 194.869 C 371.833 210.113 386.46 222.398 404.429 222.309 C 422.397 222.221 436.902 209.792 436.827 194.547 C 439.157 161.917 456.585 127.444 456.585 127.444 L 456.585 127.444 C 459.771 121.335 461.525 114.573 461.49 107.465 Z " fill="rgb(255,202,85)"/><path d=" M 390.413 196.058 L 388.293 196.327 L 378.968 122.652 L 381.088 122.384 L 390.413 196.058 Z " fill="rgb(255,255,255)"/><path d=" M 418.207 195.917 L 420.329 196.165 L 428.908 122.399 L 426.785 122.152 L 418.207 195.917 Z " fill="rgb(255,255,255)"/><path d=" M 419.688 133.771 L 411.635 125.797 L 403.794 133.717 L 396.008 126.01 L 388.434 133.662 L 379.991 125.304 L 381.024 124.26 L 388.423 131.584 L 395.997 123.932 L 403.783 131.64 L 411.624 123.719 L 419.678 131.693 L 427.068 124.228 L 428.112 125.261 L 419.688 133.771 Z " fill="rgb(255,255,255)"/><path d=" M 422.908 239.634 L 386.018 239.816 C 381.924 239.836 378.588 236.534 378.567 232.44 L 378.496 217.921 L 430.213 217.667 L 430.284 232.184 C 430.305 236.279 427.002 239.614 422.908 239.634 Z " fill="rgb(212,105,70)"/><path d=" M 427.457 230.581 L 381.379 230.808 C 375.229 230.838 370.219 225.877 370.188 219.728 L 370.069 195.559 L 438.418 195.221 L 438.537 219.39 C 438.568 225.54 433.607 230.55 427.457 230.581 Z " fill="rgb(119,132,242)"/><path d=" M 446.354 130.638 C 446.354 130.638 445.34 74.126 405.585 66.175 C 405.585 66.175 433.159 65.16 445.002 85.123 C 456.844 105.084 446.354 130.638 446.354 130.638 Z " fill="rgb(255,213,120)"/><path d=" M 458.732 173.665 L 486.664 158.044 L 477.063 157.411 L 458.732 173.665 Z " fill="rgb(214,214,214)"/><path d=" M 458.732 173.665 L 467.327 159.84 L 474.54 159.648 L 458.732 173.665 Z " fill="rgb(232,232,232)"/><path d=" M 480.24 161.636 L 480.8 165.156 L 458.732 173.665 L 480.24 161.636 Z " fill="rgb(194,194,194)"/><path d=" M 348.734 73.635 L 348.72 73.072 C 349.733 73.046 350.757 73.037 351.768 73.043 L 351.764 73.607 C 350.759 73.601 349.741 73.61 348.734 73.635 Z  M 357.829 73.84 C 356.825 73.77 355.806 73.714 354.799 73.676 L 354.82 73.112 C 355.833 73.151 356.858 73.206 357.868 73.278 L 357.829 73.84 Z  M 342.685 73.979 L 342.635 73.417 C 343.642 73.328 344.665 73.253 345.675 73.196 L 345.707 73.759 C 344.702 73.816 343.686 73.89 342.685 73.979 Z  M 363.865 74.46 C 362.868 74.325 361.854 74.204 360.853 74.102 L 360.91 73.541 C 361.918 73.644 362.938 73.765 363.941 73.9 L 363.865 74.46 Z  M 336.669 74.706 L 336.583 74.148 C 337.582 73.995 338.599 73.856 339.604 73.734 L 339.671 74.294 C 338.672 74.415 337.662 74.554 336.669 74.706 Z  M 369.849 75.467 C 368.863 75.268 367.859 75.082 366.865 74.915 L 366.959 74.358 C 367.959 74.527 368.97 74.714 369.961 74.915 L 369.849 75.467 Z  M 330.713 75.817 L 330.591 75.266 C 331.578 75.049 332.583 74.845 333.578 74.659 L 333.682 75.213 C 332.692 75.398 331.694 75.601 330.713 75.817 Z  M 375.752 76.867 C 374.784 76.603 373.795 76.35 372.813 76.118 L 372.942 75.569 C 373.931 75.803 374.926 76.057 375.9 76.323 L 375.752 76.867 Z  M 324.842 77.313 L 324.685 76.771 C 325.655 76.49 326.645 76.22 327.626 75.97 L 327.765 76.517 C 326.789 76.765 325.806 77.033 324.842 77.313 Z  M 381.546 78.663 C 380.598 78.332 379.629 78.013 378.665 77.715 L 378.832 77.176 C 379.802 77.477 380.777 77.797 381.731 78.13 L 381.546 78.663 Z  M 319.085 79.191 L 318.893 78.661 C 319.842 78.316 320.811 77.982 321.772 77.668 L 321.947 78.204 C 320.991 78.516 320.028 78.848 319.085 79.191 Z  M 387.199 80.86 C 386.278 80.463 385.334 80.077 384.393 79.711 L 384.597 79.185 C 385.545 79.554 386.495 79.943 387.422 80.342 L 387.199 80.86 Z  M 313.47 81.45 L 313.242 80.935 C 314.166 80.526 315.109 80.128 316.048 79.75 L 316.258 80.273 C 315.326 80.648 314.388 81.044 313.47 81.45 Z  M 392.676 83.465 C 391.787 83.001 390.875 82.545 389.962 82.111 L 390.204 81.602 C 391.123 82.039 392.043 82.498 392.937 82.965 L 392.676 83.465 Z  M 308.009 84.096 L 307.745 83.597 C 308.641 83.125 309.558 82.661 310.471 82.218 L 310.717 82.726 C 309.809 83.166 308.897 83.626 308.009 84.096 Z  M 397.935 86.481 C 397.087 85.949 396.212 85.424 395.335 84.921 L 395.615 84.432 C 396.499 84.938 397.38 85.467 398.234 86.003 L 397.935 86.481 Z  M 302.745 87.114 L 302.447 86.635 C 303.308 86.101 304.189 85.574 305.069 85.07 L 305.351 85.559 C 304.476 86.06 303.6 86.583 302.745 87.114 Z  M 402.933 89.912 C 402.132 89.311 401.303 88.716 400.47 88.145 L 400.788 87.68 C 401.628 88.256 402.464 88.855 403.271 89.46 L 402.933 89.912 Z  M 297.708 90.497 L 297.377 90.04 C 298.197 89.445 299.04 88.857 299.882 88.292 L 300.196 88.761 C 299.36 89.322 298.523 89.906 297.708 90.497 Z  M 407.619 93.755 C 406.874 93.086 406.1 92.422 405.318 91.782 L 405.676 91.346 C 406.464 91.992 407.244 92.661 407.996 93.335 L 407.619 93.755 Z  M 292.925 94.229 L 292.563 93.797 C 293.339 93.145 294.138 92.498 294.937 91.876 L 295.283 92.32 C 294.489 92.939 293.696 93.582 292.925 94.229 Z  M 412.413 97.553 C 411.574 96.971 410.748 96.358 409.956 95.731 L 410.307 95.289 C 411.089 95.909 411.906 96.515 412.734 97.09 L 412.413 97.553 Z  M 288.422 98.294 L 288.029 97.888 C 288.757 97.183 289.507 96.481 290.259 95.802 L 290.637 96.221 C 289.89 96.895 289.145 97.592 288.422 98.294 Z  M 417.635 100.73 C 416.729 100.25 415.835 99.741 414.977 99.219 L 415.27 98.737 C 416.119 99.253 417.004 99.756 417.898 100.232 L 417.635 100.73 Z  M 284.22 102.669 L 283.8 102.293 C 284.476 101.537 285.174 100.783 285.875 100.053 L 286.282 100.444 C 285.585 101.169 284.892 101.918 284.22 102.669 Z  M 423.168 103.3 C 422.216 102.915 421.272 102.507 420.366 102.086 L 420.604 101.575 C 421.501 101.991 422.436 102.396 423.379 102.777 L 423.168 103.3 Z  M 428.935 105.33 C 427.947 105.029 426.97 104.708 426.028 104.378 L 426.215 103.846 C 427.149 104.174 428.119 104.492 429.099 104.79 L 428.935 105.33 Z  M 434.847 106.894 C 433.838 106.664 432.839 106.418 431.877 106.165 L 432.021 105.619 C 432.977 105.872 433.97 106.115 434.972 106.344 L 434.847 106.894 Z  M 280.338 107.33 L 279.893 106.985 C 280.514 106.183 281.157 105.382 281.805 104.604 L 282.238 104.965 C 281.595 105.737 280.955 106.533 280.338 107.33 Z  M 440.841 108.079 C 439.818 107.905 438.808 107.72 437.837 107.528 L 437.945 106.975 C 438.912 107.166 439.918 107.35 440.936 107.523 L 440.841 108.079 Z  M 446.875 108.974 C 445.839 108.84 444.823 108.7 443.855 108.557 L 443.938 108 C 444.902 108.142 445.915 108.281 446.947 108.415 L 446.875 108.974 Z  M 452.931 109.665 C 451.861 109.556 450.869 109.449 449.897 109.339 L 449.961 108.778 C 450.931 108.888 451.921 108.995 452.988 109.104 L 452.931 109.665 Z  M 459.003 110.238 C 457.997 110.148 456.984 110.056 455.967 109.96 L 456.02 109.399 C 457.036 109.495 458.048 109.586 459.054 109.676 L 459.003 110.238 Z  M 465.073 110.784 C 464.071 110.69 463.059 110.599 462.039 110.508 L 462.089 109.947 C 463.11 110.038 464.123 110.129 465.126 110.222 L 465.073 110.784 Z  M 471.131 111.407 C 470.185 111.297 469.194 111.189 468.104 111.078 L 468.162 110.517 C 469.254 110.628 470.247 110.736 471.196 110.847 L 471.131 111.407 Z  M 477.154 112.243 C 476.211 112.085 475.199 111.933 474.148 111.788 L 474.226 111.229 C 475.281 111.375 476.298 111.528 477.247 111.687 L 477.154 112.243 Z  M 276.788 112.25 L 276.32 111.936 C 276.886 111.092 277.473 110.25 278.063 109.43 L 278.521 109.76 C 277.934 110.574 277.351 111.412 276.788 112.25 Z  M 483.093 113.48 C 482.163 113.239 481.169 113.008 480.139 112.796 L 480.253 112.244 C 481.293 112.458 482.296 112.69 483.234 112.934 L 483.093 113.48 Z  M 488.817 115.399 C 487.937 115.021 486.987 114.661 485.995 114.333 L 486.173 113.797 C 487.18 114.131 488.145 114.496 489.041 114.881 L 488.817 115.399 Z  M 273.58 117.399 L 273.092 117.117 C 273.6 116.238 274.128 115.357 274.662 114.5 L 275.141 114.798 C 274.61 115.65 274.085 116.525 273.58 117.399 Z  M 494.012 118.381 C 493.247 117.795 492.406 117.241 491.513 116.733 L 491.791 116.243 C 492.707 116.763 493.569 117.332 494.354 117.933 L 494.012 118.381 Z  M 498.081 122.703 L 497.992 122.572 C 497.469 121.797 496.875 121.058 496.229 120.374 L 496.639 119.986 C 497.307 120.693 497.919 121.456 498.459 122.255 L 498.55 122.39 L 498.081 122.703 Z  M 270.715 122.749 L 270.209 122.498 C 270.66 121.587 271.131 120.674 271.607 119.785 L 272.104 120.051 C 271.631 120.935 271.163 121.843 270.715 122.749 Z  M 500.915 128.011 C 500.563 127.115 500.135 126.197 499.643 125.284 L 500.139 125.017 C 500.642 125.949 501.079 126.887 501.44 127.805 L 500.915 128.011 Z  M 268.191 128.268 L 267.672 128.049 C 268.066 127.112 268.479 126.172 268.897 125.254 L 269.411 125.489 C 268.994 126.401 268.584 127.336 268.191 128.268 Z  M 502.233 133.836 C 502.184 132.866 502.042 131.87 501.812 130.875 L 502.361 130.748 C 502.599 131.774 502.745 132.804 502.797 133.807 L 502.233 133.836 Z  M 266.004 133.93 L 265.473 133.742 C 265.812 132.783 266.167 131.82 266.53 130.88 L 267.057 131.083 C 266.695 132.018 266.342 132.976 266.004 133.93 Z  M 264.144 139.708 L 263.603 139.551 C 263.888 138.574 264.188 137.592 264.497 136.633 L 265.034 136.806 C 264.727 137.76 264.427 138.737 264.144 139.708 Z  M 501.91 139.897 L 501.379 139.708 C 501.714 138.765 501.956 137.791 502.098 136.814 L 502.655 136.896 C 502.509 137.909 502.258 138.918 501.91 139.897 Z  M 498.867 145.248 L 498.428 144.895 C 499.07 144.093 499.642 143.261 500.124 142.421 L 500.613 142.702 C 500.116 143.567 499.528 144.423 498.867 145.248 Z  M 262.597 145.581 L 262.048 145.451 C 262.281 144.46 262.53 143.464 262.786 142.491 L 263.332 142.634 C 263.076 143.603 262.829 144.594 262.597 145.581 Z  M 494.447 149.522 L 494.104 149.075 C 494.918 148.449 495.688 147.789 496.393 147.111 L 496.783 147.518 C 496.063 148.209 495.277 148.884 494.447 149.522 Z  M 261.351 151.524 L 260.796 151.422 C 260.98 150.421 261.179 149.414 261.385 148.429 L 261.937 148.544 C 261.731 149.525 261.534 150.528 261.351 151.524 Z  M 489.204 152.764 L 488.975 152.249 C 488.985 152.244 490.082 151.752 491.62 150.795 L 491.918 151.274 C 490.344 152.253 489.25 152.744 489.204 152.764 Z  M 260.389 157.522 L 259.83 157.445 C 259.969 156.437 260.119 155.421 260.278 154.428 L 260.835 154.517 C 260.677 155.507 260.526 156.518 260.389 157.522 Z  M 259.697 163.558 L 259.136 163.506 C 259.23 162.493 259.336 161.472 259.45 160.472 L 260.011 160.536 C 259.896 161.532 259.791 162.549 259.697 163.558 Z  M 259.26 169.621 L 258.696 169.591 C 258.75 168.575 258.813 167.55 258.886 166.546 L 259.448 166.586 C 259.376 167.587 259.313 168.608 259.26 169.621 Z " fill="rgb(232,232,232)"/><path d=" M 332.258 146.955 C 332.258 146.955 337.606 147.857 336.699 156.231 C 335.792 164.605 331.07 163.867 330.755 163.854 C 330.438 163.843 326.006 163.956 325.771 153.717 C 325.771 153.717 325.704 146.147 332.258 146.955 Z " fill="rgb(238,169,135)"/><path d=" M 334.602 161.566 C 334.602 161.566 334.396 165.038 334.722 165.788 C 335.047 166.538 330.447 168.886 327.576 166.183 C 327.576 166.183 328.157 162.416 327.977 161.085 C 327.796 159.755 334.602 161.566 334.602 161.566 Z " fill="rgb(238,169,135)"/><path d=" M 336.809 153.864 C 336.809 153.864 337.401 153.244 337.609 153.88 C 337.818 154.517 336.859 157.263 336.734 157.468 C 336.734 157.468 336.624 157.713 336.484 157.576 C 336.346 157.439 336.809 153.864 336.809 153.864 Z " fill="rgb(238,169,135)"/><path d=" M 325.833 153.638 C 325.833 153.638 325.266 152.994 325.031 153.622 C 324.797 154.25 325.652 157.068 325.759 157.242 C 325.759 157.242 325.943 157.531 326.088 157.4 C 326.233 157.269 325.833 153.638 325.833 153.638 Z " fill="rgb(238,169,135)"/><path d=" M 328.344 162.735 C 328.344 162.735 329.197 163.921 331.181 163.876 C 333.164 163.831 334.025 162.797 334.025 162.797 C 334.025 162.797 333.086 164.761 331.171 164.74 C 329.257 164.719 328.344 162.735 328.344 162.735 Z " fill="rgb(199,141,113)"/><path d=" M 314.682 270.42 C 314.682 270.42 313.95 272.064 313.334 272.715 C 312.718 273.367 310.357 274.532 310.345 276.466 C 310.331 278.564 314.323 277.982 315.885 277.905 C 317.447 277.829 317.565 276.708 318.223 275.52 C 318.88 274.332 319.543 274.533 319.666 273.575 C 319.789 272.617 319.162 270.472 319.162 270.472 L 314.682 270.42 Z " fill="rgb(29,32,51)"/><path d=" M 314.613 269.814 L 314.5 270.809 C 314.5 270.809 316.955 271.632 319.277 270.895 L 319.148 269.535 L 314.613 269.814 Z " fill="rgb(80,85,138)"/><path d=" M 413.132 274.24 L 412.569 274.217 L 415.398 203.216 L 366.482 203.216 L 363.653 274.24 L 363.091 274.217 L 365.941 202.654 L 415.983 202.654 L 413.132 274.24 Z " fill="rgb(26,89,140)"/><path d=" M 417.713 274.24 L 414.884 203.216 L 365.968 203.216 L 368.796 274.217 L 368.234 274.24 L 365.383 202.654 L 415.425 202.654 L 418.275 274.217 L 417.713 274.24 Z " fill="rgb(26,89,140)"/><path d=" M 368.516 251.14 L 417.994 251.14 L 415.154 179.846 L 365.676 179.846 L 368.516 251.14 Z " fill="rgb(191,185,183)"/><path d=" M 411.455 251.14 L 361.977 251.14 L 364.816 179.846 L 414.295 179.846 L 411.455 251.14 Z " fill="rgb(242,235,233)"/><path d=" M 377.833 229.663 L 377.294 229.47 L 381.984 216.314 L 392.154 213.625 L 395.809 199.184 L 403.657 195.721 L 405.414 184.493 L 405.98 184.582 L 404.174 196.118 L 396.295 199.595 L 392.626 214.091 L 382.422 216.791 L 377.833 229.663 Z " fill="rgb(61,142,209)"/><path d=" M 393.571 212.892 C 394.105 213.544 394.009 214.505 393.355 215.04 C 392.703 215.573 391.742 215.476 391.208 214.823 C 390.675 214.171 390.771 213.209 391.424 212.675 C 392.077 212.142 393.038 212.239 393.571 212.892 Z " fill="rgb(245,238,236)"/><path d=" M 391.605 212.897 C 391.076 213.33 390.997 214.113 391.43 214.642 C 391.862 215.171 392.646 215.25 393.175 214.818 C 393.704 214.384 393.783 213.602 393.351 213.073 C 392.918 212.543 392.135 212.464 391.605 212.897 Z  M 393.537 215.261 C 392.764 215.893 391.619 215.778 390.987 215.004 C 390.354 214.231 390.47 213.087 391.243 212.455 C 392.017 211.822 393.161 211.937 393.793 212.71 C 394.426 213.484 394.311 214.628 393.537 215.261 Z " fill="rgb(61,142,209)"/><path d=" M 397.274 198.511 C 397.809 199.164 397.712 200.125 397.059 200.659 C 396.406 201.192 395.445 201.096 394.911 200.443 C 394.378 199.791 394.475 198.83 395.127 198.295 C 395.78 197.762 396.741 197.859 397.274 198.511 Z " fill="rgb(245,238,236)"/><path d=" M 395.309 198.517 C 394.779 198.95 394.7 199.733 395.133 200.262 C 395.565 200.792 396.349 200.871 396.878 200.437 C 397.407 200.004 397.486 199.221 397.053 198.692 C 396.62 198.164 395.838 198.084 395.309 198.517 Z  M 397.24 200.88 C 396.466 201.513 395.322 201.398 394.689 200.625 C 394.058 199.85 394.173 198.707 394.946 198.074 C 395.72 197.442 396.864 197.556 397.496 198.33 C 398.129 199.104 398.014 200.249 397.24 200.88 Z " fill="rgb(61,142,209)"/><path d=" M 405.002 194.949 C 405.535 195.601 405.438 196.563 404.786 197.096 C 404.134 197.629 403.172 197.534 402.639 196.88 C 402.105 196.228 402.202 195.267 402.854 194.733 C 403.507 194.2 404.469 194.296 405.002 194.949 Z " fill="rgb(245,238,236)"/><path d=" M 383.441 215.716 C 383.975 216.369 383.878 217.331 383.226 217.864 C 382.573 218.397 381.611 218.3 381.078 217.648 C 380.545 216.995 380.642 216.034 381.294 215.5 C 381.946 214.967 382.908 215.063 383.441 215.716 Z " fill="rgb(245,238,236)"/><path d=" M 381.476 215.722 C 380.945 216.155 380.867 216.937 381.3 217.466 C 381.732 217.996 382.516 218.075 383.045 217.642 C 383.574 217.209 383.652 216.426 383.22 215.897 C 382.787 215.368 382.005 215.29 381.476 215.722 Z  M 383.407 218.085 C 382.633 218.717 381.489 218.602 380.856 217.829 C 380.225 217.055 380.339 215.911 381.113 215.279 C 381.887 214.646 383.03 214.761 383.663 215.535 C 384.296 216.309 384.181 217.453 383.407 218.085 Z " fill="rgb(61,142,209)"/><path d=" M 385.115 198.453 L 372.027 198.453 C 371.422 198.453 370.932 197.962 370.932 197.357 L 370.932 196.383 C 370.932 195.778 371.422 195.288 372.027 195.288 L 385.115 195.288 C 385.72 195.288 386.211 195.778 386.211 196.383 L 386.211 197.357 C 386.211 197.962 385.72 198.453 385.115 198.453 Z " fill="rgb(222,215,213)"/><path d=" M 385.115 192.918 L 372.027 192.918 C 371.422 192.918 370.932 192.429 370.932 191.824 L 370.932 190.849 C 370.932 190.244 371.422 189.754 372.027 189.754 L 385.115 189.754 C 385.72 189.754 386.211 190.244 386.211 190.849 L 386.211 191.824 C 386.211 192.429 385.72 192.918 385.115 192.918 Z " fill="rgb(222,215,213)"/><path d=" M 403.036 194.955 C 402.506 195.387 402.428 196.17 402.86 196.7 C 403.293 197.229 404.075 197.308 404.605 196.875 C 405.135 196.442 405.213 195.659 404.78 195.129 C 404.348 194.601 403.565 194.522 403.036 194.955 Z  M 404.967 197.318 C 404.193 197.951 403.05 197.835 402.417 197.061 C 401.785 196.288 401.899 195.144 402.674 194.511 C 403.447 193.879 404.591 193.994 405.224 194.767 C 405.856 195.542 405.741 196.685 404.967 197.318 Z " fill="rgb(61,142,209)"/><path d=" M 373.683 242.368 L 373.339 242.121 L 379.368 233.724 L 387.152 233.893 L 392.708 224.372 L 399 223.515 L 402.549 215.889 L 402.933 216.068 L 399.286 223.904 L 392.97 224.763 L 387.393 234.322 L 379.582 234.153 L 373.683 242.368 Z " fill="rgb(61,142,209)"/><path d=" M 388.311 233.663 C 388.557 234.236 388.291 234.9 387.717 235.146 C 387.144 235.392 386.479 235.126 386.234 234.553 C 385.988 233.979 386.254 233.315 386.827 233.07 C 387.4 232.824 388.064 233.089 388.311 233.663 Z " fill="rgb(245,238,236)"/><path d=" M 386.911 233.264 C 386.445 233.463 386.229 234.004 386.429 234.469 C 386.628 234.934 387.169 235.151 387.634 234.952 C 388.099 234.751 388.315 234.211 388.116 233.747 C 387.916 233.281 387.376 233.065 386.911 233.264 Z  M 387.801 235.34 C 387.121 235.632 386.331 235.316 386.039 234.636 C 385.748 233.957 386.064 233.167 386.744 232.875 C 387.424 232.583 388.214 232.9 388.505 233.58 C 388.797 234.259 388.48 235.049 387.801 235.34 Z " fill="rgb(61,142,209)"/><path d=" M 393.889 224.193 C 394.135 224.766 393.869 225.43 393.296 225.676 C 392.723 225.922 392.059 225.657 391.813 225.083 C 391.566 224.509 391.832 223.845 392.405 223.6 C 392.979 223.354 393.644 223.62 393.889 224.193 Z " fill="rgb(245,238,236)"/><path d=" M 392.489 223.794 C 392.024 223.994 391.808 224.535 392.007 225 C 392.206 225.464 392.747 225.681 393.212 225.482 C 393.678 225.282 393.894 224.742 393.694 224.277 C 393.495 223.811 392.954 223.595 392.489 223.794 Z  M 393.379 225.871 C 392.699 226.163 391.909 225.846 391.618 225.167 C 391.326 224.487 391.643 223.697 392.322 223.405 C 393.002 223.114 393.792 223.43 394.084 224.11 C 394.375 224.79 394.059 225.58 393.379 225.871 Z " fill="rgb(61,142,209)"/><path d=" M 400.114 223.242 C 400.36 223.815 400.095 224.479 399.521 224.725 C 398.947 224.97 398.283 224.705 398.038 224.131 C 397.792 223.558 398.058 222.894 398.631 222.648 C 399.204 222.403 399.869 222.668 400.114 223.242 Z " fill="rgb(245,238,236)"/><path d=" M 380.527 233.597 C 380.772 234.17 380.507 234.834 379.934 235.081 C 379.36 235.327 378.696 235.061 378.45 234.487 C 378.205 233.914 378.471 233.25 379.044 233.004 C 379.617 232.758 380.281 233.024 380.527 233.597 Z " fill="rgb(245,238,236)"/><path d=" M 379.127 233.199 C 378.662 233.398 378.446 233.939 378.646 234.404 C 378.845 234.869 379.385 235.085 379.851 234.886 C 380.315 234.686 380.532 234.146 380.332 233.68 C 380.133 233.215 379.593 233 379.127 233.199 Z  M 380.018 235.275 C 379.337 235.567 378.547 235.25 378.256 234.571 C 377.965 233.891 378.28 233.101 378.96 232.809 C 379.641 232.518 380.431 232.833 380.722 233.514 C 381.013 234.194 380.697 234.984 380.018 235.275 Z " fill="rgb(61,142,209)"/><path d=" M 398.715 222.843 C 398.249 223.042 398.033 223.583 398.232 224.048 C 398.432 224.513 398.973 224.729 399.438 224.53 C 399.903 224.331 400.119 223.79 399.92 223.325 C 399.721 222.86 399.18 222.643 398.715 222.843 Z  M 399.604 224.919 C 398.925 225.21 398.135 224.895 397.844 224.215 C 397.552 223.535 397.868 222.745 398.548 222.454 C 399.228 222.163 400.018 222.478 400.31 223.158 C 400.601 223.837 400.284 224.627 399.604 224.919 Z " fill="rgb(61,142,209)"/><path d=" M 363.304 182.546 C 363.304 182.546 364.917 182.04 365.047 181.083 C 365.157 180.271 365.887 179.3 366.111 179 C 366.411 178.601 366.874 177.03 367.382 177.402 C 367.891 177.776 366.744 180.03 366.599 180.55 C 366.452 181.072 368.658 180.081 369.204 180.217 C 369.75 180.353 371.185 184.1 369.592 184.605 C 367.999 185.11 365.964 184.597 365.701 184.743 C 365.439 184.886 364.558 185.155 364.558 185.155 L 363.304 182.546 Z " fill="rgb(238,168,134)"/><path d=" M 368.805 180.247 C 368.805 180.247 373.783 179.025 374.184 179.221 C 374.583 179.417 374.634 179.692 374.173 179.825 C 373.712 179.958 369.396 181.145 369.396 181.145 C 369.396 181.145 375.532 180.689 375.895 180.778 C 376.107 180.83 376.236 181.354 375.996 181.449 C 375.756 181.542 369.7 182.342 369.7 182.342 C 369.7 182.342 375.431 181.927 375.712 182.092 C 375.958 182.237 375.955 182.748 375.532 182.808 C 375.109 182.868 369.813 183.553 369.813 183.553 C 369.813 183.553 374.003 183.513 374.158 183.793 C 374.253 183.964 374.386 184.413 373.305 184.388 C 372.223 184.366 369.666 184.579 369.666 184.579 L 368.805 180.247 Z " fill="rgb(238,168,134)"/><path d=" M 339.654 177.179 C 339.654 177.179 340.947 179.46 342.677 182.027 C 342.836 182.263 342.999 182.502 343.164 182.742 C 343.164 182.742 343.164 182.743 343.165 182.744 C 343.391 183.068 343.62 183.393 343.854 183.717 C 344.133 184.103 344.418 184.486 344.706 184.859 C 346.31 186.938 347.997 188.707 349.277 189.022 C 352.05 189.705 365.977 186.617 365.977 186.617 L 364.9 181.141 C 364.9 181.141 360.018 182.803 356.754 183.076 C 354.753 183.242 352.257 183.899 351.962 183.713 C 351.665 183.528 345.953 175.289 345.546 174.401 C 345.137 173.511 343.312 170.024 341.755 168.358 C 340.199 166.69 338.507 167.326 338.507 167.326 C 333.84 170.363 339.654 177.179 339.654 177.179 Z " fill="rgb(219,223,240)"/><path d=" M 345.948 269.935 C 345.948 269.935 348.103 272.197 350.289 272.67 C 352.476 273.144 354.005 273.749 354.021 275.046 C 354.038 276.344 347.729 277.2 345.227 275.891 C 341.492 273.938 341.112 274.527 340.698 273.551 C 340.284 272.575 341.195 269.964 341.169 269.654 C 341.135 269.271 345.948 269.935 345.948 269.935 Z " fill="rgb(32,35,56)"/><path d=" M 345.706 268.853 C 345.706 268.853 345.99 269.913 345.948 269.935 C 345.906 269.958 341.021 270.504 341.169 269.654 C 341.288 268.964 341.459 268.215 341.459 268.215 L 345.706 268.853 Z " fill="rgb(47,107,140)"/><path d=" M 340.778 205.217 C 340.778 205.217 343.041 221.651 343.965 227.206 C 345.046 233.702 345.412 239.068 345.713 242.43 C 346.092 246.659 346.595 268.298 346.86 269.535 C 347.125 270.771 340.271 270.128 340.271 270.128 C 340.271 270.128 336.68 241.917 335.551 237.415 C 334.5 233.221 331.439 215.109 330.48 216.253 C 329.521 217.399 325.422 238.065 324.712 241.372 C 324.001 244.679 320.029 271.202 320.029 271.202 C 320.029 271.202 315.777 271.973 313.199 270.672 C 313.199 270.672 315.198 247.474 315.65 241.274 C 315.823 238.911 316.244 212.951 320.24 202.496 C 322.352 196.97 340.778 205.217 340.778 205.217 Z " fill="rgb(41,44,71)"/><path d=" M 334.141 165.805 C 334.141 165.805 340.128 167.042 340.838 167.671 C 341.609 168.341 342.969 174.898 343.05 176.725 C 343.132 178.551 342.328 186.18 341.558 189.021 C 340.786 191.863 341.066 205.839 341.553 209.776 C 341.553 209.776 332.683 213.749 317.709 210.143 C 317.709 210.143 320.316 197.184 319.842 193.292 C 319.233 188.303 318.039 176.064 318.039 176.064 C 318.039 176.064 318.002 168.577 319.057 167.684 C 320.112 166.791 327.879 165.805 327.879 165.805 L 334.141 165.805 Z " fill="rgb(219,223,240)"/><path d=" M 322.438 167.325 C 322.438 167.325 326.188 168.358 324.125 175.241 C 322.51 180.631 322.291 181.789 322.291 181.789 L 313.638 179.627 C 313.638 179.627 315.852 168.239 319.995 167.259 C 319.995 167.259 321.634 166.961 322.438 167.325 Z " fill="rgb(219,223,240)"/><path d=" M 342.677 182.027 C 342.836 182.263 342.999 182.502 343.164 182.742 C 343.164 182.742 343.164 182.743 343.165 182.744 C 343.391 183.068 343.62 183.393 343.854 183.717 C 344.03 180.512 343.188 176.064 343.188 176.064 C 343.35 177.554 342.677 182.027 342.677 182.027 Z " fill="rgb(163,169,196)"/><path d=" M 340.774 182.697 L 337.099 182.697 L 337.099 177.083 L 340.774 177.083 L 340.774 182.697 Z " fill="rgb(219,223,240)"/><path d=" M 334.573 164.933 C 334.573 164.933 330.873 166.021 327.773 164.74 L 327.559 166.256 C 327.559 166.256 331.717 167.835 334.965 167.113 L 334.573 164.933 Z " fill="rgb(219,223,240)"/><path d=" M 313.354 209.561 C 313.354 209.561 313.67 211.499 313.932 211.862 C 314.192 212.225 314.876 214.038 314.943 214.292 C 315.011 214.545 315.411 216.367 315.481 216.597 C 315.552 216.828 315.027 217.171 314.688 216.678 C 314.478 216.372 314.125 215.19 313.979 214.807 C 313.834 214.425 313.387 213.217 313.251 213.432 C 313.115 213.646 313.104 215.25 313.07 215.663 C 313.038 216.074 313.265 217.35 313.374 217.878 C 313.482 218.407 314.12 220.626 313.837 220.738 C 313.554 220.848 313.317 220.809 312.973 220.208 C 312.973 220.208 312.391 220.514 312.077 219.78 C 312.077 219.78 311.56 219.952 311.268 218.999 C 311.268 218.999 310.909 218.789 310.777 218.446 C 310.646 218.103 309.895 215.185 309.934 214.004 C 309.974 212.824 310.273 212.008 310.245 211.173 C 310.218 210.338 309.839 208.543 309.839 208.543 L 313.354 209.561 Z " fill="rgb(238,168,134)"/><path d=" M 314.376 211.606 C 314.376 211.606 312.311 211.932 309.344 211.683 C 309.344 211.683 311.023 192.592 310.938 191.513 C 310.857 190.516 314.792 172.779 316.952 170.09 L 320.24 180.465 C 319.989 180.385 316.662 191.045 316.616 192.143 C 316.554 193.615 314.376 211.606 314.376 211.606 Z " fill="rgb(219,223,240)"/><path d=" M 337.189 152.323 C 337.353 150.099 337.188 148.261 336.898 147.125 C 336.543 145.726 334.278 146.11 334.278 146.11 L 334.278 146.11 C 330.824 145.076 328.743 145.552 327.435 146.112 C 325.476 147.716 325.327 150.448 325.416 151.952 C 325.455 152.308 325.496 152.667 325.536 153.015 C 325.537 153.022 325.538 153.026 325.538 153.026 C 325.715 154.521 325.896 155.823 325.896 155.823 L 326.518 156.541 C 326.518 156.541 326.357 154.05 326.741 153.91 C 326.946 153.834 326.996 153.332 326.997 152.883 C 327 152.498 326.966 152.151 326.966 152.151 C 330.96 150.313 335.444 151.623 335.544 151.877 C 335.607 152.036 335.698 152.514 335.788 152.938 C 335.843 153.195 335.896 153.432 335.94 153.565 C 336.06 153.919 336.013 156.167 336.013 156.167 L 336.792 155.15 C 336.792 155.15 336.891 154.665 337.019 153.934 L 337.019 153.934 L 337.019 153.934 C 337.061 153.696 337.104 153.434 337.15 153.152 C 337.15 153.152 337.184 152.834 337.189 152.323 Z " fill="rgb(67,67,67)"/><path d=" M 272.04 238.433 L 248.737 238.433 L 248.737 239.816 L 272.04 239.816 L 272.04 238.433 Z " fill="rgb(226,210,202)"/><path d=" M 251.86 306.327 L 253.902 306.327 L 253.902 243.417 L 251.86 243.417 L 251.86 306.327 Z " fill="rgb(112,104,101)"/><path d=" M 284.591 238.041 L 268.394 238.041 L 268.394 240.016 L 284.591 240.016 L 284.591 238.041 Z " fill="rgb(204,189,183)"/><path d=" M 279.559 239.816 L 273.425 239.816 L 273.425 221.186 L 279.559 221.186 L 279.559 239.816 Z " fill="rgb(204,189,183)"/><path d=" M 330.125 243.417 L 240.378 243.417 L 240.378 239.839 L 330.125 239.839 L 330.125 243.417 Z " fill="rgb(181,144,116)"/><path d=" M 223.153 218.189 C 223.153 218.189 222.172 231.955 224.861 233.602 C 226.546 234.633 233.264 238.115 233.064 238.767 C 232.865 239.42 229.271 244.576 229.271 244.576 C 229.271 244.576 216.367 236.078 215.951 233.4 C 215.545 230.784 216.587 213.245 218.36 212.437 C 219.688 211.833 220.39 212.333 222.064 213.576 C 224.414 215.32 223.153 218.189 223.153 218.189 Z " fill="rgb(50,54,87)"/><path d=" M 246.671 222.12 L 247.809 221.699 C 247.809 221.699 246.39 218.37 245.771 218.451 C 245.058 218.543 244.168 218.779 244.168 218.779 L 246.671 222.12 Z " fill="rgb(234,216,207)"/><path d=" M 246.931 222.694 C 246.785 222.585 244.513 218.226 244.513 218.226 L 239.658 218.886 L 242.281 224.049 L 246.931 222.694 Z " fill="rgb(218,155,91)"/><path d=" M 239.029 297.737 C 239.029 297.737 238.628 300.522 238.578 300.941 C 238.528 301.359 234.114 300.694 234.114 300.694 L 233.757 297.378 C 233.757 297.378 238.478 297.344 239.029 297.737 Z " fill="rgb(66,71,115)"/><path d=" M 238.625 300.586 C 238.625 300.586 240.023 302.265 241.376 302.997 C 242.729 303.728 244.854 304.018 245.653 304.775 C 246.23 305.322 247.757 307.674 242.139 307.627 C 236.521 307.58 233.813 307.959 233.212 307.057 C 232.609 306.155 234.082 300.398 234.082 300.398 C 234.082 300.398 235.413 300.876 238.625 300.586 Z " fill="rgb(41,44,71)"/><path d=" M 267.307 297.763 C 267.307 297.763 266.906 300.549 266.855 300.967 C 266.806 301.385 262.392 300.721 262.392 300.721 L 262.034 297.405 C 262.034 297.405 266.756 297.371 267.307 297.763 Z " fill="rgb(66,71,115)"/><path d=" M 266.902 300.613 C 266.902 300.613 268.301 302.292 269.653 303.023 C 271.006 303.754 275.983 304.355 276.783 305.113 C 277.36 305.659 278.32 307.86 270.417 307.654 C 264.801 307.507 262.091 307.986 261.489 307.083 C 260.888 306.181 262.36 300.424 262.36 300.424 C 262.36 300.424 263.613 300.936 266.902 300.613 Z " fill="rgb(41,44,71)"/><path d=" M 224.794 249.625 C 224.794 249.625 240.84 252.34 244.464 252.91 C 248.089 253.479 267.739 258.369 270.197 259.859 C 272.153 261.045 269.171 289.53 268.475 300.398 L 260.734 300.398 L 260.173 267.797 C 250.885 268.03 244.257 265.625 237.493 266.652 C 230.729 267.679 225.091 269.14 220.793 263.375 C 220.793 263.375 220.634 250.884 224.794 249.625 Z " fill="rgb(41,44,71)"/><path d=" M 240.609 300.424 L 233.067 299.958 L 232.332 267.797 C 228.333 267.898 226.963 267.644 223.727 267.251 L 217.637 253.096 C 222.974 254.163 240.074 258.476 242.354 259.859 C 244.312 261.045 241.307 289.556 240.609 300.424 Z " fill="rgb(41,44,71)"/><path d=" M 232.181 189.478 C 232.181 189.478 238.063 187.852 240.307 192.418 C 242.551 196.985 241.533 205.642 238.569 206.456 C 235.604 207.271 231.341 206.333 230.11 203.491 C 228.88 200.649 227.898 196.61 228.192 193.996 C 228.487 191.379 230.618 190.103 232.181 189.478 Z " fill="rgb(238,168,134)"/><path d=" M 237.032 205.545 C 237.032 205.545 236.967 209.018 237.351 209.758 C 237.733 210.499 229.159 210.313 229.159 210.313 C 229.159 210.313 230.511 206.142 229.744 202.589 C 228.985 199.073 237.032 205.545 237.032 205.545 Z " fill="rgb(238,168,134)"/><path d=" M 229.282 201.275 C 229.282 201.275 229.74 202.207 231.96 202.056 C 234.179 201.906 237.105 199.229 238.048 198.989 C 238.99 198.75 239.046 198.213 239.046 198.213 L 239.545 199.1 L 240.511 199.247 C 240.511 199.247 239.854 196.563 241.283 195.619 C 242.713 194.674 240.64 187.064 233.403 188.9 C 233.403 188.9 227.881 189.911 227.807 192.996 C 227.732 196.079 228.21 199.641 229.282 201.275 Z " fill="rgb(58,63,71)"/><path d=" M 237.801 209.668 C 237.801 209.668 237.777 208.254 237.136 208.119 C 236.494 207.984 230.396 207.145 229.609 207.454 L 229.271 209.322 C 229.271 209.322 230.788 210.254 237.801 209.668 Z " fill="rgb(226,210,202)"/><path d=" M 239.565 197.581 C 239.401 196.421 238.083 195.09 237.328 196.896 C 236.573 198.702 237.838 201.332 238.685 201.191 C 239.531 201.05 239.789 199.155 239.565 197.581 Z " fill="rgb(238,168,134)"/><path d=" M 263.344 226.382 C 263.341 226.38 263.338 226.38 263.334 226.381 C 263.378 226.401 263.384 226.402 263.344 226.382 Z " fill="rgb(50,54,87)"/><path d=" M 230.465 190.306 C 230.465 190.306 223.293 189.968 229.213 201.165 L 230.465 190.306 Z " fill="rgb(58,63,71)"/><path d=" M 214.484 304.239 L 215.019 305.74 L 237.562 298.755 L 236.48 295.716 L 214.484 304.239 Z " fill="rgb(145,135,131)"/><path d=" M 238.334 297.686 L 235.772 297.686 L 235.772 273.177 L 238.334 273.177 L 238.334 297.686 Z " fill="rgb(145,135,131)"/><path d=" M 244.609 273.319 L 229.497 273.319 L 229.497 271.875 L 244.609 271.875 L 244.609 273.319 Z " fill="rgb(94,88,84)"/><path d=" M 259.82 304.239 L 259.286 305.74 L 236.743 298.755 L 237.734 295.525 L 259.82 304.239 Z " fill="rgb(145,135,131)"/><path d=" M 243.937 305.58 L 243.937 307.326 L 236.743 298.755 L 237.734 295.525 L 243.937 305.58 Z " fill="rgb(145,135,131)"/><path d=" M 261.927 306.327 C 261.927 307.491 260.983 308.433 259.82 308.433 C 258.656 308.433 257.713 307.491 257.713 306.327 C 257.713 305.164 258.656 304.22 259.82 304.22 C 260.983 304.22 261.927 305.164 261.927 306.327 Z " fill="rgb(191,178,172)"/><path d=" M 244.116 306.327 C 244.116 307.491 243.173 308.433 242.009 308.433 C 240.846 308.433 239.902 307.491 239.902 306.327 C 239.902 305.164 240.846 304.22 242.009 304.22 C 243.173 304.22 244.116 305.164 244.116 306.327 Z " fill="rgb(191,178,172)"/><path d=" M 216.592 306.327 C 216.592 307.491 215.648 308.433 214.484 308.433 C 213.321 308.433 212.378 307.491 212.378 306.327 C 212.378 305.164 213.321 304.22 214.484 304.22 C 215.648 304.22 216.592 305.164 216.592 306.327 Z " fill="rgb(191,178,172)"/><path d=" M 252.353 271.875 L 221.952 271.875 C 220.46 271.875 219.251 270.666 219.251 269.174 L 219.251 269.105 C 219.251 267.614 220.46 266.405 221.952 266.405 L 252.353 266.405 C 253.844 266.405 255.054 267.614 255.054 269.105 L 255.054 269.174 C 255.054 270.666 253.844 271.875 252.353 271.875 Z " fill="rgb(226,210,202)"/><path d=" M 318.643 306.327 L 316.601 306.327 L 316.601 243.417 L 318.643 243.417 L 318.643 306.327 Z " fill="rgb(112,104,101)"/><path d=" M 300.281 230.161 L 252.703 230.161 C 251.216 230.161 250.01 228.955 250.01 227.466 L 250.01 195.49 C 250.01 194.001 251.216 192.796 252.703 192.796 L 300.281 192.796 C 301.769 192.796 302.975 194.001 302.975 195.49 L 302.975 227.466 C 302.975 228.955 301.769 230.161 300.281 230.161 Z " fill="rgb(242,226,217)"/><path d=" M 300.9 224.305 L 252.084 224.305 L 252.084 194.815 L 300.9 194.815 L 300.9 224.305 Z " fill="rgb(245,247,255)"/><path d=" M 278.201 226.664 C 278.201 227.608 277.436 228.373 276.492 228.373 C 275.549 228.373 274.783 227.608 274.783 226.664 C 274.783 225.72 275.549 224.956 276.492 224.956 C 277.436 224.956 278.201 225.72 278.201 226.664 Z " fill="rgb(145,134,129)"/><path d=" M 287.457 239.887 L 287.457 239.222 C 287.457 239.222 286.522 235.086 279.91 235.086 C 273.298 235.086 273.432 239.887 273.432 239.887 L 287.457 239.887 Z " fill="rgb(226,210,202)"/><path d=" M 273.352 235.701 C 273.352 235.701 274.788 235.589 275.314 235.272 C 275.841 234.955 278.989 232.836 279.729 233.176 C 280.469 233.515 285.391 235.023 285.22 235.743 C 285.049 236.462 284.593 236.393 284.246 236.265 C 283.898 236.138 280.325 235.388 280.01 235.514 C 280.01 235.514 283.52 236.794 283.534 237.729 C 283.548 238.664 282.799 238.891 282.467 239.245 C 282.134 239.598 281.733 240.475 280.829 240.542 C 279.925 240.61 275.511 239.074 274.602 239.004 C 273.693 238.934 272.011 239.06 271.896 238.913 C 271.782 238.764 273.352 235.701 273.352 235.701 Z " fill="rgb(238,168,134)"/><path d=" M 247.201 211.629 C 242.621 210.825 237.801 209.668 237.801 209.668 L 229.271 209.322 C 229.271 209.322 221.443 211.044 218.36 212.437 C 218.067 212.569 218.066 219.42 217.264 221.217 L 219.82 226.61 C 219.82 226.61 221.297 237.292 221.603 242.042 C 221.743 244.223 221.205 263.12 221.205 263.12 C 221.205 263.12 221.972 263.498 227.793 264.139 C 233.614 264.781 248.159 263.907 248.251 263.219 C 248.343 262.532 245.434 237.618 245.305 236.328 C 245.107 234.347 245.877 225.197 245.877 225.197 C 246.974 226.67 249.77 233.324 252.685 236.489 C 254.399 238.351 262.888 239.493 264.488 239.546 C 267.972 239.663 274.325 240.356 274.512 240.017 C 274.659 239.814 275.064 234.377 274.666 234.245 C 274.317 234.127 262.519 233.449 259.496 231.845 C 258.39 231.258 255.084 224.049 255.084 224.049 C 255.084 224.049 249.728 212.764 247.201 211.629 Z " fill="rgb(50,54,87)"/><path d=" M 230.393 262.573 L 216.073 262.573 C 213.209 262.573 210.888 260.251 210.888 257.388 L 210.888 233.563 C 210.888 230.7 213.209 228.378 216.073 228.378 L 230.393 228.378 C 233.256 228.378 235.577 230.7 235.577 233.563 L 235.577 257.388 C 235.577 260.251 233.256 262.573 230.393 262.573 Z " fill="rgb(226,210,202)"/><path d=" M 231.202 270.513 C 227.563 270.513 224.61 269.291 222.427 266.879 C 217.491 261.431 218.378 251.852 218.418 251.447 C 218.493 250.692 219.167 250.14 219.92 250.215 C 220.675 250.291 221.227 250.962 221.152 251.717 C 221.142 251.826 220.355 260.508 224.468 265.042 C 226.132 266.875 228.335 267.766 231.202 267.766 C 231.961 267.766 232.576 268.381 232.576 269.14 C 232.576 269.898 231.961 270.513 231.202 270.513 Z " fill="rgb(226,210,202)"/><path d=" M 269.458 198.722 L 255.931 198.722 C 255.718 198.722 255.545 198.549 255.545 198.336 L 255.545 197.55 C 255.545 197.337 255.718 197.165 255.931 197.165 L 269.458 197.165 C 269.672 197.165 269.845 197.337 269.845 197.55 L 269.845 198.336 C 269.845 198.549 269.672 198.722 269.458 198.722 Z " fill="rgb(223,225,232)"/><path d=" M 269.458 202.064 L 255.931 202.064 C 255.718 202.064 255.545 201.891 255.545 201.678 L 255.545 200.892 C 255.545 200.679 255.718 200.505 255.931 200.505 L 269.458 200.505 C 269.672 200.505 269.845 200.679 269.845 200.892 L 269.845 201.678 C 269.845 201.891 269.672 202.064 269.458 202.064 Z " fill="rgb(223,225,232)"/><path d=" M 268.546 221.957 L 256.844 221.957 C 256.126 221.957 255.545 221.375 255.545 220.658 L 255.545 205.637 C 255.545 204.92 256.126 204.338 256.844 204.338 L 268.546 204.338 C 269.263 204.338 269.845 204.92 269.845 205.637 L 269.845 220.658 C 269.845 221.375 269.263 221.957 268.546 221.957 Z " fill="rgb(223,225,232)"/><path d=" M 296.141 221.957 L 274.787 221.957 C 273.651 221.957 272.731 221.036 272.731 219.901 L 272.731 199.22 C 272.731 198.084 273.651 197.165 274.787 197.165 L 296.141 197.165 C 297.276 197.165 298.196 198.084 298.196 199.22 L 298.196 219.901 C 298.196 221.036 297.276 221.957 296.141 221.957 Z " fill="rgb(223,225,232)"/><path d=" M 507.52 233.705 C 507.504 273.117 506.4 280.832 496.503 289.663 C 492.627 293.121 485.499 300.305 464.932 303.881 C 458.758 304.956 451.375 305.705 442.506 305.93 C 438.887 306.022 435.565 305.891 432.527 305.56 C 429.979 305.285 427.631 304.868 425.473 304.328 C 402.869 298.664 401.181 279.296 411.067 263.004 C 413.686 258.69 416.677 254.723 419.814 251.026 C 424.655 245.315 429.847 240.242 434.547 235.506 C 438.88 231.143 442.797 227.067 445.645 223.042 C 446.846 221.346 447.855 219.66 448.627 217.965 C 451.023 212.724 453.941 207.744 457.282 203.125 C 460.17 199.135 462.313 196.896 462.313 196.896 C 464.854 195.708 471.487 193.384 478.439 193.135 C 491.429 192.672 507.535 199.078 507.52 233.705 Z " fill="rgb(67,115,207)"/><path d=" M 454.937 293.039 C 454.937 293.039 455.26 295.68 455.689 296.846 C 456.118 298.011 458.449 300.701 457.465 303.286 C 456.396 306.087 451.736 303.386 449.836 302.532 C 447.935 301.676 448.367 300.125 448.165 298.226 C 447.962 296.326 447.035 296.274 447.377 294.938 C 447.719 293.602 449.798 291.044 449.798 291.044 L 454.937 293.039 Z " fill="rgb(33,58,112)"/><path d=" M 450.696 289.663 C 450.696 289.663 449.503 291.332 449.535 291.377 C 449.568 291.423 454.646 294.514 454.999 293.512 C 455.28 292.715 455.398 291.561 455.398 291.561 L 450.696 289.663 Z " fill="rgb(238,168,134)"/><path d=" M 433.484 294.907 C 433.484 294.907 431.936 296.264 430.544 298.351 C 429.153 300.437 425.461 300.548 425.303 303.396 C 425.145 306.244 430.323 306.332 433.042 305.405 C 435.761 304.477 436.171 301.696 437.815 301 C 439.459 300.304 440.313 299.742 440.187 298.384 C 440.06 297.026 439.15 294.822 439.15 294.822 C 439.15 294.822 438.129 295.148 437.528 295.214 C 436.928 295.281 434.907 295.304 433.484 294.907 Z " fill="rgb(33,58,112)"/><path d=" M 452.119 217.743 C 452.119 217.743 451.077 223.94 450.237 228.032 C 450.237 228.032 450.237 228.032 450.237 228.033 C 449.896 229.692 449.59 231.006 449.398 231.419 C 449.158 231.94 447.202 234.041 444.81 236.505 C 440.609 240.829 435.06 246.273 435.06 246.273 L 432.891 242.156 C 432.891 242.156 437.819 236.377 441.161 232.522 C 442.708 230.738 443.914 229.366 444.135 229.167 C 444.833 228.542 445.645 222.385 446.784 217.311 C 447.924 212.238 450.207 209.434 450.207 209.434 L 452.119 217.743 Z " fill="rgb(255,202,85)"/><path d=" M 444.81 236.505 C 440.609 240.829 435.06 246.273 435.06 246.273 L 432.891 242.156 C 432.891 242.156 437.819 236.377 441.161 232.522 C 442.186 233.024 444.065 234.222 444.81 236.505 Z " fill="rgb(238,168,134)"/><path d=" M 433.728 293.009 L 433.484 294.907 C 433.484 294.907 436.18 295.859 439.15 294.822 L 439.211 293.135 L 433.728 293.009 Z " fill="rgb(238,168,134)"/><path d=" M 471.996 245.436 C 472.151 245.987 443.442 245.436 443.442 245.436 C 443.442 245.436 451.384 239.656 451.898 238.111 C 452.413 236.567 449.877 227.302 449.546 224.288 C 449.281 221.875 448.617 211.083 450.207 209.434 C 451.869 207.71 457.854 205.905 457.854 205.905 L 466.58 206.229 C 466.58 206.229 468.021 206.53 469.05 207.007 C 470.079 207.485 475.966 209.583 476.922 212.523 C 477.878 215.465 471.048 224.921 471.048 224.921 C 471.048 224.921 471.035 225.346 471.014 226.042 C 471.014 226.043 471.014 226.043 471.014 226.043 C 470.988 226.972 470.949 228.383 470.913 229.915 C 470.867 231.897 470.827 234.081 470.827 235.675 C 470.827 239.425 471.841 244.884 471.996 245.436 Z " fill="rgb(255,202,85)"/><path d=" M 471.996 245.436 C 471.996 245.436 475.9 251.17 475.956 255.086 C 476.011 259.001 469.026 272.116 467.97 273.992 C 464.792 279.631 456.077 291.796 456.077 291.796 C 456.077 291.796 454.575 291.758 449.888 289.939 C 449.888 289.939 455.686 273.87 456.42 272.202 C 459.536 265.126 461.276 260.108 460.229 258.895 C 459.181 257.681 456.324 256.464 455.497 255.748 C 454.67 255.031 440.259 258.471 438.749 258.863 C 434.84 259.876 436.621 266.679 437.486 269.73 C 438.934 274.833 440.198 293.259 440.198 293.259 C 440.198 293.259 437.414 294.446 432.749 293.444 C 432.749 293.444 423.589 260.17 423.295 256.862 C 423.001 253.553 422.856 248.097 445.429 243.95 L 471.996 245.436 Z " fill="rgb(232,232,232)"/><path d=" M 460.249 186.947 C 460.249 186.947 452.675 185.238 454.404 194.77 C 456.135 204.302 457.956 205.051 462.526 203.08 C 467.096 201.106 466.687 195 466.917 192.004 C 467.146 189.009 462.665 187.05 460.249 186.947 Z " fill="rgb(238,168,134)"/><path d=" M 458.245 208.351 C 458.245 208.351 461.6 211.908 466.9 208.675 C 466.9 208.675 465.715 200.968 466.339 197.214 C 466.963 193.46 459.422 203.031 459.422 203.031 C 459.521 203.083 459.587 203.442 459.603 203.951 C 459.615 204.383 459.592 204.924 459.522 205.479 C 459.367 206.726 458.979 208.044 458.245 208.351 Z " fill="rgb(238,168,134)"/><path d=" M 466.548 196.896 C 466.548 196.896 466.353 193.892 465.255 193.798 C 464.158 193.705 463.989 194.914 463.989 194.914 L 462.882 195.124 C 462.882 195.124 463.231 192.491 462.137 192.031 C 461.041 191.572 455.039 193.48 454.16 192.708 C 453.281 191.935 453.694 186.595 455.285 185.865 C 456.875 185.134 461.267 183.497 464.484 185.674 C 464.484 185.674 466.992 185.388 467.364 187.413 C 467.736 189.436 467.229 195.391 466.548 196.896 Z " fill="rgb(58,63,71)"/><path d=" M 459.522 205.479 C 464.992 203.792 465.404 200.499 465.41 200.447 C 463.609 203.542 459.603 203.951 459.603 203.951 C 459.615 204.383 459.592 204.924 459.522 205.479 Z " fill="rgb(167,120,96)"/><path d=" M 469.14 207.049 C 469.14 207.049 465.135 215.022 458.664 214.508 C 452.192 213.993 457.561 205.979 457.854 205.905 C 458.178 205.823 464.491 204.25 469.14 207.049 Z " fill="rgb(238,168,134)"/><path d=" M 440.158 245.032 C 440.158 245.032 459.984 247.476 471.996 245.436 L 449.045 242.568 C 449.045 242.568 448.909 243.153 440.158 245.032 Z " fill="rgb(255,202,85)"/><path d=" M 454.987 241.666 L 453.51 242.414 C 453.51 242.414 453.847 244.759 454.655 245.47 L 456.313 245.047 C 456.313 245.047 455.968 242.474 454.987 241.666 Z " fill="rgb(238,168,134)"/><path d=" M 477.929 236.861 C 477.634 237.203 473.735 238.771 469.333 240.466 L 469.332 240.467 C 463.317 242.785 456.531 244.976 456.531 244.976 L 454.987 241.666 C 454.987 241.666 462.093 237.804 466.895 235.096 C 469.162 233.817 470.916 232.795 471.164 232.559 C 471.936 231.825 472.136 230.645 471.568 228.589 C 471.001 226.533 469.693 217.082 469.546 215.978 C 469.399 214.875 469.914 211.934 472.671 211.788 C 475.429 211.64 476.832 212.418 476.832 212.418 C 476.832 212.418 477.524 212.706 478.039 219.398 C 478.554 226.088 478.627 236.052 477.929 236.861 Z " fill="rgb(255,202,85)"/><path d=" M 471.014 226.042 C 471.014 226.043 471.014 226.043 471.014 226.043 C 470.988 226.972 470.949 228.383 470.913 229.915 C 468.222 223.318 469.776 218.053 469.803 217.964 C 469.512 219.754 470.993 225.955 471.014 226.042 Z " fill="rgb(201,160,67)"/><path d=" M 450.237 228.032 C 450.237 228.032 450.237 228.032 450.237 228.033 C 449.896 229.692 449.59 231.006 449.398 231.419 C 448.479 226.971 449.307 221.276 449.307 221.276 C 449.432 223.997 450.237 228.032 450.237 228.032 Z " fill="rgb(201,160,67)"/><path d=" M 469.333 240.466 L 469.332 240.467 C 463.317 242.785 456.313 245.047 456.313 245.047 L 454.987 241.666 C 454.987 241.666 462.093 237.804 466.895 235.096 C 466.895 235.096 468.641 235.947 469.333 240.466 Z " fill="rgb(238,168,134)"/><path d=" M 454.56 245.244 L 426.38 244.83 L 440.607 252.053 L 454.56 245.244 Z " fill="rgb(68,76,148)"/><path d=" M 440.607 252.053 L 454.56 246.649 L 454.56 245.244 L 439.505 250.674 L 440.607 252.053 Z " fill="rgb(48,54,105)"/><path d=" M 453.829 242.464 C 453.829 242.464 452.069 242.191 450.853 241.908 C 449.91 241.688 447.569 241.991 446.974 242.594 C 446.377 243.199 444.48 247.409 444.122 247.666 C 443.764 247.922 444.306 248.517 444.937 248.218 C 444.937 248.218 445.514 250.06 446.941 249.371 C 448.368 248.681 449.338 247.175 450.085 246.911 C 450.832 246.645 455.185 245.307 455.185 245.307 C 455.185 245.307 454.95 242.016 453.829 242.464 Z " fill="rgb(238,168,134)"/><path d=" M 447.403 242.318 C 447.403 242.318 446.272 242.865 445.978 243.108 C 445.683 243.351 444.485 244.247 444.196 244.458 C 443.906 244.668 444.633 245.268 446.772 244.341 C 448.911 243.415 447.403 242.318 447.403 242.318 Z " fill="rgb(238,168,134)"/><path d=" M 440.607 252.053 L 432.226 229.167 L 405.204 229.609 L 413.192 250.699 L 440.607 252.053 Z " fill="rgb(48,54,105)"/><path d=" M 423.579 239.292 C 424.404 240.94 424.155 242.736 423.023 243.301 C 421.892 243.868 420.306 242.991 419.48 241.342 C 418.656 239.694 418.905 237.899 420.037 237.333 C 421.169 236.766 422.755 237.644 423.579 239.292 Z " fill="rgb(81,138,250)"/><path d=" M 464.013 193.642 C 464.112 192.8 465.774 192.493 465.908 193.753 C 466.043 195.014 465.153 197.227 464.522 197.009 C 463.892 196.792 463.875 194.801 464.013 193.642 Z " fill="rgb(238,168,134)"/><linearGradient id="_lgradient_7" x1="0" y1="0" x2="1" y2="0" gradientTransform="matrix(-73.773,-181.973,181.973,-73.773,264.945,136.574)" gradientUnits="userSpaceOnUse"><stop offset="1.3043478260869565%" stop-opacity="1" style="stop-color:rgb(0,111,247)"/><stop offset="97.82608695652173%" stop-opacity="1" style="stop-color:rgb(0,196,255)"/></linearGradient><path d=" M 287.479 21.022 C 287.479 59.275 256.467 90.287 218.209 90.287 C 179.957 90.287 148.944 59.275 148.944 21.022 C 148.944 13.694 150.081 6.628 152.196 0 L 284.228 0 C 286.343 6.628 287.479 13.694 287.479 21.022 Z " fill="url(#_lgradient_7)"/><path d=" M 185.662 0 C 185.662 0 179.749 16.411 146.704 32.641 C 133.714 39.023 116.528 45.378 93.861 50.696 C 54.095 60.029 27.99 70.685 11.268 84.904 C 6.896 88.621 3.164 92.582 0 96.828 L 0 0 L 185.662 0 Z " fill="rgb(255,255,255)"/></g></svg>